mtllib ./brake.mtl

g
# object (null) to come ...
#
v -687.351624 43.247597 -19.968086
v -673.770569 8.601234 -19.968330
v -568.491272 -64.459618 -19.968330
v -555.377014 134.413971 -19.967842
v -669.338928 75.809853 -19.967842
v -381.074738 540.337097 -230.686829
v -388.771515 534.095398 -62.919502
v -657.407776 41.129677 -230.686356
v -651.428284 40.735390 -19.319649
v -639.588928 311.339264 -230.686584
v -481.654816 540.220276 -62.919502
v -487.191437 547.334778 -230.686829
v -340.439972 388.053864 -19.320137
v -633.595764 311.159210 -19.320137
v -376.656281 21.078407 -230.686829
v -383.906769 21.556557 -26.000313
v -604.940979 -305.519135 -50.195625
v -559.807678 378.914215 -50.196602
v -366.382843 270.686676 18.929863
v -601.610901 -301.512238 18.891045
v -420.932648 246.917023 18.923759
v -350.804230 362.581207 -50.196602
v -557.032288 374.504791 18.889824
v -420.929718 246.916168 -56.883369
v -450.137238 -195.961761 18.924492
v -450.134796 -195.963837 -56.882393
v -358.142120 270.143707 -52.427559
v -548.714417 -476.716766 -62.918770
v -555.136780 -483.042511 -230.685608
v -675.225159 -229.078827 -230.685852
v -669.260803 -229.687897 -19.319160
v -388.942413 -347.474030 -19.319160
v -428.516144 -486.180817 -62.918770
v -421.705597 -493.379120 -230.685608
v -404.051300 -315.807587 18.846611
v -395.804718 -319.835724 -50.195625
v -390.940460 -227.234222 -52.426582
v -399.180695 -226.690704 18.930840
v -359.508820 359.671539 18.845390
# 39 vertices

vt  0.179688 0.705078 0.000000
vt  0.169922 0.701172 0.000000
vt  0.152344 0.662109 0.000000
vt  0.210938 0.662109 0.000000
vt  0.193359 0.701172 0.000000
vt  0.349609 0.619141 0.000000
vt  0.333984 0.625000 0.000000
vt  0.179688 0.701172 0.000000
vt  0.179688 0.677734 0.000000
vt  0.265625 0.701172 0.000000
vt  0.333984 0.640625 0.000000
vt  0.349609 0.642578 0.000000
vt  0.287109 0.605469 0.000000
vt  0.259766 0.677734 0.000000
vt  0.175781 0.597656 0.000000
vt  0.175781 0.605469 0.000000
vt  0.062500 0.662109 0.000000
vt  0.287109 0.662109 0.000000
vt  0.250000 0.605469 0.000000
vt  0.074219 0.658203 0.000000
vt  0.244141 0.623047 0.000000
vt  0.287109 0.605469 0.000000
vt  0.277344 0.658203 0.000000
vt  0.244141 0.623047 0.000000
vt  0.107422 0.623047 0.000000
vt  0.107422 0.623047 0.000000
vt  0.250000 0.605469 0.000000
vt  0.021484 0.640625 0.000000
vt  0.005859 0.642578 0.000000
vt  0.089844 0.701172 0.000000
vt  0.095703 0.677734 0.000000
vt  0.062500 0.605469 0.000000
vt  0.021484 0.619141 0.000000
vt  0.005859 0.619141 0.000000
vt  0.074219 0.605469 0.000000
vt  0.062500 0.605469 0.000000
vt  0.097656 0.605469 0.000000
vt  0.097656 0.605469 0.000000
vt  0.277344 0.605469 0.000000
# 39 texture vertices

vn  -0.000000 -0.000006 1.000000
vn  -0.000007 -0.000010 1.000000
vn  -0.000001 -0.000003 1.000000
vn  0.000001 -0.000003 1.000000
vn  0.000005 -0.000010 1.000000
vn  0.682488 0.730143 -0.033201
vn  0.483586 0.708396 0.514121
vn  -0.997432 0.065772 0.028339
vn  -0.688724 0.041439 0.723838
vn  -0.947641 0.317742 0.031889
vn  -0.352555 0.766877 0.536287
vn  -0.451421 0.890755 0.052672
vn  0.738817 0.143228 0.658510
vn  -0.694580 0.264172 0.669158
vn  0.998112 -0.057031 -0.022782
vn  0.691979 -0.049065 0.720248
vn  -0.748542 -0.659100 0.072604
vn  -0.649876 0.756521 0.073053
vn  0.613276 -0.457093 0.644172
vn  -0.603377 -0.519344 0.605160
vn  0.427644 -0.309517 0.849306
vn  0.772873 0.622789 0.121663
vn  -0.525594 0.598737 0.604371
vn  0.809703 -0.586840 0.000038
vn  0.464595 0.250683 0.849300
vn  0.879745 0.475446 0.000015
vn  0.801830 -0.592012 0.081176
vn  -0.449511 -0.712959 0.538173
vn  -0.564488 -0.824143 0.046269
vn  -0.982270 -0.185489 0.027184
vn  -0.720057 -0.163281 0.674431
vn  0.689504 -0.188513 0.699319
vn  0.451525 -0.734421 0.506706
vn  0.617877 -0.786275 0.000471
vn  0.505188 -0.599646 0.620653
vn  0.680457 -0.722320 0.123418
vn  0.873144 0.480375 0.082823
vn  0.668852 0.371753 0.643768
vn  0.582124 0.523658 0.622024
# 39 vertex normals

g (null)
usemtl MISC
s 1
f 1/1/1 2/2/2 3/3/3
f 1/1/1 3/3/3 4/4/4
f 1/1/1 4/4/4 5/5/5
f 6/6/6 12/12/12 11/11/11
f 11/11/11 7/7/7 6/6/6
f 8/8/8 9/9/9 14/14/14
f 14/14/14 10/10/10 8/8/8
f 10/10/10 14/14/14 11/11/11
f 11/11/11 12/12/12 10/10/10
f 13/13/13 7/7/7 11/11/11
f 11/11/11 14/14/14 13/13/13
f 13/13/13 16/16/16 15/15/15
f 13/13/13 15/15/15 6/6/6
f 13/13/13 6/6/6 7/7/7
f 13/13/13 14/14/14 9/9/9
f 9/9/9 16/16/16 13/13/13
f 17/17/17 20/20/20 23/23/23
f 23/23/23 18/18/18 17/17/17
f 19/19/19 27/27/27 22/22/22
f 22/22/22 39/39/39 19/19/19
f 20/20/20 25/25/25 21/21/21
f 21/21/21 23/23/23 20/20/20
f 39/39/39 22/22/22 18/18/18
f 18/18/18 23/23/23 39/39/39
f 24/24/24 21/21/21 25/25/25
f 25/25/25 26/26/26 24/24/24
f 27/27/27 19/19/19 21/21/21
f 21/21/21 24/24/24 27/27/27
f 34/34/34 33/33/33 28/28/28
f 28/28/28 29/29/29 34/34/34
f 9/9/9 8/8/8 30/30/30
f 30/30/30 31/31/31 9/9/9
f 31/31/31 30/30/30 29/29/29
f 29/29/29 28/28/28 31/31/31
f 28/28/28 33/33/33 32/32/32
f 32/32/32 31/31/31 28/28/28
f 32/32/32 33/33/33 34/34/34
f 32/32/32 34/34/34 15/15/15
f 32/32/32 15/15/15 16/16/16
f 31/31/31 32/32/32 16/16/16
f 16/16/16 9/9/9 31/31/31
f 37/37/37 38/38/38 35/35/35
f 35/35/35 36/36/36 37/37/37
f 38/38/38 25/25/25 20/20/20
f 20/20/20 35/35/35 38/38/38
f 35/35/35 20/20/20 17/17/17
f 17/17/17 36/36/36 35/35/35
f 37/37/37 26/26/26 25/25/25
f 25/25/25 38/38/38 37/37/37
f 23/23/23 21/21/21 19/19/19
f 19/19/19 39/39/39 23/23/23
# 51 faces
